<svg version="1.1" id="Capa_1" xmlns="http://www.w3.org/2000/svg" x="0" y="0" viewBox="0 0 337.1 1424.7" xml:space="preserve"><style>.st0{fill:#ccc}.st2{fill:#ff5249}</style><path class="st0" d="M168.4 10.2s36.7 39.4 65.6 100H102.7c29-60.6 65.7-100 65.7-100z"/><path class="st0" d="M234 110.2H102.7c-18.8 39.4-34.4 87.8-34.4 140 0 13.6.8 26.8 2.2 39.8 4 37 13.1 71 24.5 100.2h146.8c16.9-43.6 26.6-91.9 26.6-140 0-52.3-15.5-100.6-34.4-140zM168.6 360c-5.5 0-10-4.5-10-10s4.5-10 10-10 10 4.5 10 10-4.5 10-10 10zm-10-50v-20c0-5.5 4.5-10 10-10s10 4.5 10 10v20c0 5.5-4.5 10-10 10s-10-4.5-10-10zm9.8-59.8c-22.1 0-40-17.9-40-40s17.9-40 40-40 40 17.9 40 40-17.9 40-40 40z"/><path class="st0" d="M268.4 290.2c91.1 18.2 58.2 121.8 20 160 0-40-31.7-60-31.7-60h-14.9c11.3-29.2 20.5-63.3 24.5-100.2l2.1.2z"/><path class="st0" d="M138.6 450.2h-2.3c-6.8 0-13.3-3.3-16.8-9.1-8.5-14.4-17-31.6-24.5-50.9h146.8c-7.5 19.3-16 36.5-24.5 50.9-3.5 5.8-10 9.1-16.8 9.1h-61.9z"/><path class="st0" d="M68.4 290.2l2.1-.2c4 37 13.1 71 24.5 100.2H80.1s-31.7 20-31.7 60c-38.2-38.2-71.1-141.8 20-160z"/><path d="M138.6 450.2h59.7c6.3 10.6 10.2 24.6 10.2 40 0 33.1-40 80-40 80s-40-46.9-40-80c-.1-15.4 3.7-29.4 10.1-40z" fill="#bfc0c0"/><path class="st0" d="M52.4 459.2c1.2-.5 2.3-1.3 3.2-2.2 1.8-1.8 2.9-4.4 2.9-7.1 0-28.4 18.4-45 24.9-50h5c6.7 16.5 14.3 31.9 22.7 46 3 5.1 7.7 9 13.1 11.4-3.7 9.9-5.6 21.1-5.6 32.6 0 36.4 40.7 84.5 42.4 86.5 1.9 2.2 4.7 3.5 7.6 3.5 2.7 0 5.2-1.1 7.1-2.9.2-.2.4-.4.5-.6 1.7-2 42.4-50.1 42.4-86.5 0-11.4-2-22.6-5.6-32.6 5.8-2.5 10.3-6.6 13.1-11.4 8.3-14.1 15.9-29.5 22.7-46h5c6.5 5 24.9 21.6 24.9 50 0 4 2.4 7.7 6.2 9.2 3.7 1.5 8 .7 10.9-2.2 28-28 50.4-83.8 37.9-125.1-5.4-18-19.7-40.7-56.3-50.2.9-10.6 1.3-21.3 1.3-31.7 0-46.7-11.9-95.3-35.3-144.3C214 44.4 177.4 4.8 175.9 3.2c-1.9-2-4.5-3.2-7.3-3.2s-5.4 1.1-7.3 3.2c-1.5 1.7-38.1 41.3-67.3 102.5-23.6 49-35.5 97.6-35.4 144.3 0 10.5.5 21.1 1.3 31.7C23.2 291.2 9 314 3.6 331.9-8.9 373.2 13.5 429 41.5 457c2.8 2.9 7.1 3.8 10.9 2.2zM198.6 490c0 19.4-17.7 47.4-30 63.9-12.3-16.5-30-44.4-30-63.9 0-10.9 2.2-21.3 6.2-30h47.6c4 8.7 6.2 19.1 6.2 30zm10.3-54.2c-1.5 2.6-4.7 4.2-8.2 4.2h-64.2c-3.5 0-6.7-1.6-8.2-4.2-6.6-11.1-12.6-23.1-18.2-35.8H227c-5.5 12.7-11.6 24.7-18.1 35.8zm105.5-98.1c8 26.6-2.5 62.7-19.4 88.3-6-19.5-20.7-37.3-33-44.6-2.9-1.7-5.5-1.4-5.7-1.4 8.8-25.4 15.1-51.6 18.7-78.1 20.8 6 34 18.1 39.4 35.8zM218 100h-98.8c18.6-35.3 38.9-61.8 49.4-74.7 10.5 12.9 30.8 39.4 49.4 74.7zM78.6 250c0-41.9 10.4-85.6 30.8-130h118.5c20.4 44.4 30.8 88.1 30.8 130 0 12.7-.7 25.8-2.1 38.7-3.4 31.1-10.6 61.8-21.4 91.3h-133c-10.9-29.6-18.1-60.2-21.4-91.3-1.5-12.9-2.2-26-2.2-38.7zm-55.9 87.7c5.4-17.8 18.6-29.8 39.4-35.9 3.6 26.5 9.9 52.7 18.7 78.1-.2 0-3-.3-5.9 1.5-1.2.8-23.9 15.4-32.8 44.5-16.9-25.5-27.5-61.6-19.4-88.2z"/><path class="st2" d="M167.8 722.5s36.7 39.4 65.6 100H102.1c29-60.5 65.7-100 65.7-100z"/><path d="M102.1 822.5h131.3c18.8 39.4 34.4 87.8 34.4 140 0 48.1-9.7 96.4-26.6 140H94.4c-11.3-29.2-20.5-63.3-24.5-100.2-1.4-12.9-2.2-26.2-2.2-39.8.1-52.2 15.6-100.6 34.4-140z" fill="#fff"/><path d="M167.8 882.5c22.1 0 40 17.9 40 40s-17.9 40-40 40-40-17.9-40-40c0-22 17.9-40 40-40z" fill="#7bd8e8"/><path class="st2" d="M267.8 1002.5c91.1 18.2 58.2 121.8 20 160 0-40-31.7-60-31.7-60h-14.9c11.3-29.2 20.5-63.3 24.5-100.2l2.1.2zm-129.9 160h-2.3c-6.8 0-13.3-3.3-16.8-9.1-8.5-14.4-17-31.6-24.5-50.9h146.8c-7.5 19.3-16 36.5-24.5 50.9-3.5 5.8-10 9.1-16.8 9.1h-61.9z"/><path class="st2" d="M67.8 1002.5l2.1-.2c4 37 13.1 71 24.5 100.2h-15s-31.7 20-31.7 60c-38.2-38.2-71.1-141.7 20.1-160z"/><path d="M137.9 1162.5h59.7c6.3 10.6 10.2 24.6 10.2 40 0 33.1-40 80-40 80s-40-46.9-40-80c0-15.3 3.8-29.3 10.1-40z" fill="#ffdd78"/><path d="M177.9 1062.4c0-5.5-4.5-10-10-10s-10 4.5-10 10 4.5 10 10 10c5.6 0 10-4.5 10-10zm40-140c0-27.6-22.4-50-50-50s-50 22.4-50 50 22.4 50 50 50 50-22.5 50-50zm-80 0c0-16.6 13.4-30 30-30s30 13.4 30 30c0 16.5-13.5 30-30 30s-30-13.5-30-30z"/><path d="M51.8 1171.6c1.2-.5 2.3-1.3 3.2-2.2 1.8-1.8 2.9-4.4 2.9-7.1 0-28.4 18.4-45 24.9-50h5c6.7 16.5 14.3 31.9 22.7 46 3 5.1 7.7 9 13.1 11.4-3.7 9.9-5.6 21.1-5.6 32.6 0 36.4 40.7 84.5 42.4 86.5 1.9 2.2 4.7 3.5 7.6 3.5 2.7 0 5.2-1.1 7.1-2.9.2-.2.4-.4.5-.6 1.7-2 42.4-50.1 42.4-86.5 0-11.4-2-22.6-5.6-32.6 5.8-2.5 10.3-6.6 13.1-11.4 8.3-14.1 15.9-29.5 22.7-46h5c6.5 5 24.9 21.6 24.9 50 0 4 2.4 7.7 6.2 9.2 3.7 1.5 8 .7 10.9-2.2 28-28 50.4-83.8 37.9-125.1-5.4-18-19.7-40.7-56.3-50.2.9-10.6 1.3-21.3 1.3-31.7 0-46.7-11.9-95.3-35.3-144.3-29.3-61.2-65.8-100.8-67.3-102.5-1.9-2-4.5-3.2-7.3-3.2s-5.4 1.1-7.3 3.2c-1.5 1.7-38.1 41.3-67.3 102.5-23.5 49.1-35.4 97.6-35.4 144.3 0 10.5.5 21.1 1.3 31.7-36.7 9.5-50.9 32.3-56.3 50.2-12.5 41.3 9.9 97.1 37.9 125.1 2.6 3 6.9 3.8 10.7 2.3zm146.1 30.8c0 19.4-17.7 47.4-30 63.9-12.3-16.5-30-44.4-30-63.9 0-10.9 2.2-21.3 6.2-30h47.6c4.1 8.6 6.2 19.1 6.2 30zm10.3-54.2c-1.5 2.6-4.7 4.2-8.2 4.2h-64.2c-3.5 0-6.7-1.6-8.2-4.2-6.6-11.1-12.6-23.1-18.2-35.8h116.9c-5.4 12.7-11.5 24.7-18.1 35.8zm105.6-98.1c8 26.6-2.5 62.7-19.4 88.3-6-19.5-20.7-37.3-33-44.6-2.9-1.7-5.5-1.4-5.7-1.4 8.8-25.4 15.1-51.6 18.7-78.1 20.8 6 34 18 39.4 35.8zm-96.4-237.7h-98.8c18.6-35.3 38.9-61.8 49.4-74.7 10.5 12.8 30.8 39.4 49.4 74.7zm-139.5 150c0-41.9 10.4-85.6 30.8-130h118.5c20.4 44.4 30.8 88.1 30.8 130 0 12.7-.7 25.8-2.1 38.7-3.4 31.1-10.6 61.8-21.4 91.3h-133c-10.9-29.6-18.1-60.2-21.4-91.3-1.5-13-2.2-26-2.2-38.7zm-55.8 87.7c5.4-17.8 18.6-29.8 39.4-35.9 3.6 26.5 9.9 52.7 18.7 78.1-.2 0-3-.3-5.9 1.5-1.2.8-23.9 15.4-32.8 44.5-16.9-25.5-27.5-61.6-19.4-88.2z"/><path d="M277.9 1242.4v-40c0-5.5-4.5-10-10-10s-10 4.5-10 10v40c0 5.5 4.5 10 10 10 5.6 0 10-4.5 10-10zm-200 0v-40c0-5.5-4.5-10-10-10s-10 4.5-10 10v40c0 5.5 4.5 10 10 10s10-4.5 10-10zm140 20v95.8c0 5.5 4.5 10 10 10s10-4.5 10-10v-95.8c0-5.5-4.5-10-10-10s-10 4.4-10 10zm-56.5 56.5v95.8c0 5.5 4.5 10 10 10s10-4.5 10-10v-95.8c0-5.5-4.5-10-10-10s-10 4.5-10 10zm-43.5 39.3v-95.8c0-5.5-4.5-10-10-10s-10 4.5-10 10v95.8c0 5.5 4.5 10 10 10 5.6 0 10-4.5 10-10zm60-335.8v-20c0-5.5-4.5-10-10-10s-10 4.5-10 10v20c0 5.5 4.5 10 10 10 5.6 0 10-4.5 10-10z"/></svg>